<svg xmlns="http://www.w3.org/2000/svg" width="25" height="25" viewBox="0 0 25 25" fill="none">
  <g clip-path="url(#clip0_5_25)">
    <path d="M19.5312 9.375H18.75V6.39375C18.75 2.80859 16.1563 0 12.4711 0C8.77109 0 6.25 2.86797 6.25 6.39375V9.375H5.46875C3.74531 9.375 2.34375 10.7766 2.34375 12.5V21.875C2.34375 23.5984 3.74531 25 5.46875 25H19.5312C21.2547 25 22.6562 23.5984 22.6562 21.875V12.5C22.6562 10.7766 21.2547 9.375 19.5312 9.375ZM7.8125 6.39375C7.8125 3.73047 9.63281 1.5625 12.4711 1.5625C15.2805 1.5625 17.1875 3.68438 17.1875 6.39375V9.375H7.8125V6.39375ZM21.0938 21.875C21.0938 22.7359 20.3922 23.4375 19.5312 23.4375H5.46875C4.60703 23.4375 3.90625 22.7359 3.90625 21.875V12.5C3.90625 11.6391 4.60703 10.9375 5.46875 10.9375H19.5312C20.3922 10.9375 21.0938 11.6391 21.0938 12.5V21.875ZM12.5 14.0625C11.6375 14.0625 10.9375 14.7617 10.9375 15.625C10.9375 16.2016 11.2539 16.7 11.7188 16.9711V19.5312C11.7188 19.9625 12.0688 20.3125 12.5 20.3125C12.9312 20.3125 13.2812 19.9625 13.2812 19.5312V16.9711C13.7461 16.7008 14.0625 16.2016 14.0625 15.625C14.0625 14.7617 13.3633 14.0625 12.5 14.0625Z" fill="currentColor" stroke="currentColor" stroke-width="0.5"/>
  </g>
  <defs>
    <clipPath id="clip0_5_25">
      <rect width="25" height="25" fill="white"/>
    </clipPath>
  </defs>
</svg>
