<svg xmlns="http://www.w3.org/2000/svg" width="25" height="25" viewBox="0 0 25 25" fill="none">
  <path d="M10.496 3.29492C10.5584 2.60874 11.1337 2.08334 11.8226 2.08334H13.1774C13.8664 2.08334 14.4417 2.60874 14.5041 3.29492C14.5554 3.85826 14.9608 4.31817 15.4905 4.51668C15.6266 4.56771 15.7612 4.62214 15.894 4.67983C16.4181 4.9076 17.0345 4.86395 17.4735 4.49811C18.016 4.04605 18.8137 4.08224 19.313 4.58156L20.2692 5.53775C20.7452 6.01382 20.7797 6.77436 20.3487 7.29159C19.9897 7.7224 19.9563 8.33069 20.1976 8.8369C20.3021 9.05611 20.3975 9.28049 20.4834 9.50955C20.6819 10.0392 21.1418 10.4447 21.7051 10.4959C22.3913 10.5583 22.9167 11.1337 22.9167 11.8226V13.1774C22.9167 13.8664 22.3913 14.4417 21.7051 14.5041C21.1418 14.5553 20.6819 14.9607 20.4834 15.4904C20.4063 15.6961 20.3215 15.8979 20.2294 16.0956C20.0056 16.5761 20.0418 17.1497 20.3811 17.5569C20.7938 18.0521 20.7608 18.7803 20.3049 19.2362L19.2362 20.3049C18.7804 20.7607 18.0521 20.7938 17.5569 20.3811C17.1497 20.0418 16.5761 20.0055 16.0957 20.2294C15.898 20.3215 15.6961 20.4063 15.4905 20.4833C14.9608 20.6819 14.5554 21.1418 14.5041 21.7051C14.4417 22.3913 13.8664 22.9167 13.1774 22.9167H11.8226C11.1337 22.9167 10.5584 22.3913 10.496 21.7051C10.4447 21.1418 10.0393 20.6819 9.50959 20.4833C9.28053 20.3975 9.05615 20.3021 8.83695 20.1976C8.33073 19.9563 7.72244 19.9897 7.29162 20.3487C6.77439 20.7797 6.01384 20.7452 5.53777 20.2692L4.58159 19.3129C4.08226 18.8137 4.04608 18.0159 4.49814 17.4734C4.86399 17.0345 4.90763 16.418 4.67986 15.894C4.62217 15.7612 4.56775 15.6267 4.51671 15.4904C4.31821 14.9607 3.85829 14.5553 3.29495 14.5041C2.60877 14.4417 2.08337 13.8664 2.08337 13.1774V11.8226C2.08337 11.1337 2.60877 10.5583 3.29495 10.4959C3.8583 10.4447 4.31821 10.0393 4.51672 9.50956C4.57671 9.34949 4.64137 9.1917 4.71055 9.03635C4.95535 8.48663 4.91467 7.83602 4.52943 7.37373C4.05964 6.80999 4.09725 5.98104 4.61613 5.46215L5.46217 4.61611C5.98106 4.09722 6.81001 4.05961 7.37375 4.52941C7.83604 4.91465 8.48666 4.95532 9.03637 4.71052C9.19172 4.64134 9.34951 4.57668 9.50958 4.51669C10.0393 4.31818 10.4447 3.85827 10.496 3.29492Z" stroke="currentColor" stroke-width="2" stroke-linecap="round" stroke-linejoin="round"/>
  <path d="M15.625 12.5C15.625 14.2259 14.2259 15.625 12.5 15.625C10.7741 15.625 9.375 14.2259 9.375 12.5C9.375 10.7741 10.7741 9.375 12.5 9.375C14.2259 9.375 15.625 10.7741 15.625 12.5Z" stroke="currentColor" stroke-width="2" stroke-linecap="round" stroke-linejoin="round"/>
</svg>
