<svg width="245" height="29" viewBox="0 0 245 29" fill="none" xmlns="http://www.w3.org/2000/svg">
<path d="M4.96802 16.2573C4.63554 15.5764 4.27749 14.8132 3.89386 13.9677C3.51023 13.1222 3.11061 12.1548 2.69501 11.0653C2.27941 9.97587 1.84782 8.73037 1.40025 7.32883C0.959076 5.92729 0.492326 4.31297 0 2.48586C0.428388 2.10568 1.00384 1.77374 1.72634 1.49002C2.44885 1.20064 3.23849 1.05594 4.09526 1.05594C5.16943 1.05594 6.06137 1.25454 6.77109 1.65174C7.47441 2.04326 7.99551 2.78375 8.33438 3.87321L11.9693 15.1082H12.1515C12.5224 14.1833 12.8836 13.1762 13.2353 12.0867C13.5869 10.9972 13.9322 9.87374 14.2711 8.71619C14.6099 7.55864 14.9232 6.40109 15.211 5.24355C15.5051 4.086 15.7608 2.94831 15.9782 1.83048C17.078 1.31412 18.2896 1.05594 19.6131 1.05594C20.6873 1.05594 21.576 1.26022 22.2794 1.66876C22.9891 2.07731 23.3439 2.78659 23.3439 3.79661C23.3439 4.52859 23.2352 5.37973 23.0178 6.35002C22.8005 7.31465 22.5159 8.34169 22.1643 9.43115C21.8126 10.5206 21.4002 11.6441 20.9271 12.8017C20.4475 13.9592 19.9488 15.0969 19.4309 16.2147C18.9066 17.3325 18.3695 18.388 17.8196 19.381C17.2634 20.3739 16.7263 21.2648 16.2084 22.0535C15.3452 23.3927 14.546 24.4821 13.8107 25.3219C13.0754 26.1674 12.3689 26.8284 11.6911 27.3051C11.0198 27.7817 10.3452 28.108 9.6675 28.2839C8.98975 28.4654 8.28323 28.5562 7.54794 28.5562C6.26277 28.5562 5.22057 28.2158 4.42134 27.5349C3.62211 26.854 3.14577 25.9688 2.99232 24.8793C3.97697 24.1984 4.95843 23.4409 5.93669 22.6068C6.92134 21.7783 7.81328 20.9272 8.61251 20.0534C8.08822 19.9172 7.52556 19.5966 6.92454 19.0916C6.32991 18.5922 5.67773 17.6475 4.96802 16.2573ZM35.9539 16.9127C36.4782 16.9127 37.0536 16.8644 37.6802 16.768C38.3068 16.6715 38.7736 16.541 39.0805 16.3764V13.1081L35.7716 13.3549C34.9085 13.4116 34.202 13.5762 33.6521 13.8486C33.1022 14.1209 32.8273 14.5295 32.8273 15.0742C32.8273 15.6189 33.0639 16.0615 33.537 16.402C34.0101 16.7424 34.8158 16.9127 35.9539 16.9127ZM35.5894 0.85167C37.2454 0.85167 38.7544 1.00204 40.1163 1.30277C41.4845 1.60351 42.6514 2.06029 43.6169 2.67311C44.5824 3.28593 45.3272 4.06046 45.8515 4.99671C46.3758 5.93864 46.638 7.0508 46.638 8.33318V17.4829C46.638 18.1922 46.4142 18.771 45.9666 19.2192C45.5191 19.6675 44.9884 20.0562 44.3746 20.3853C42.3797 21.4464 39.5728 21.9769 35.9539 21.9769C34.3298 21.9769 32.8656 21.8407 31.5613 21.5684C30.257 21.296 29.1348 20.8875 28.1949 20.3427C27.2614 19.798 26.5421 19.1029 26.037 18.2575C25.5255 17.412 25.2698 16.4303 25.2698 15.3125C25.2698 13.4343 25.8995 11.9931 27.1591 10.9887C28.4187 9.97871 30.3688 9.35171 33.0095 9.10771L39.0421 8.53745V8.24806C39.0421 7.45934 38.6489 6.89475 37.8624 6.5543C37.0824 6.21384 35.9539 6.04361 34.4769 6.04361C33.3132 6.04361 32.1783 6.15143 31.0722 6.36705C29.966 6.58834 28.9686 6.86071 28.0798 7.18414C27.6834 6.94015 27.3478 6.56565 27.0728 6.06064C26.7915 5.55563 26.6508 5.03076 26.6508 4.48603C26.6508 3.78242 26.8426 3.21783 27.2263 2.79227C27.6099 2.37237 28.2013 2.01205 29.0006 1.71132C29.8893 1.41058 30.9411 1.19213 32.1559 1.05594C33.3708 0.919761 34.5153 0.85167 35.5894 0.85167ZM50.0446 18.0106C50.0446 16.8701 50.441 15.9168 51.2339 15.1508C52.0331 14.3904 53.1233 14.0103 54.5043 14.0103C55.8854 14.0103 56.9756 14.3904 57.7748 15.1508C58.574 15.9168 58.9736 16.8701 58.9736 18.0106C58.9736 19.1568 58.574 20.1101 57.7748 20.8704C56.9756 21.6365 55.8854 22.0195 54.5043 22.0195C53.1233 22.0195 52.0331 21.6365 51.2339 20.8704C50.441 20.1101 50.0446 19.1568 50.0446 18.0106ZM73.1047 0.85167C74.3643 0.85167 75.5983 1.00771 76.8067 1.3198C78.0215 1.63755 79.0733 2.10852 79.9621 2.73269C80.8828 2.18796 81.9186 1.73969 83.0695 1.38789C84.2204 1.03041 85.611 0.85167 87.2415 0.85167C88.4051 0.85167 89.5464 0.987852 90.6654 1.26022C91.7843 1.53258 92.7817 1.96099 93.6577 2.54544C94.5336 3.13556 95.2338 3.91293 95.7581 4.87756C96.276 5.84218 96.5349 7.01959 96.5349 8.40978V21.279C96.228 21.3641 95.7453 21.4464 95.0867 21.5258C94.4281 21.6053 93.744 21.645 93.0343 21.645C92.3629 21.645 91.7587 21.6053 91.2216 21.5258C90.6845 21.4464 90.2306 21.2818 89.8597 21.0322C89.4953 20.7882 89.2108 20.4562 89.0062 20.0363C88.808 19.6108 88.7088 19.0575 88.7088 18.3766V8.61405C88.7088 7.79696 88.4499 7.204 87.932 6.83517C87.4077 6.47202 86.7012 6.29045 85.8124 6.29045C85.384 6.29045 84.9237 6.3784 84.4314 6.5543C83.939 6.7302 83.5714 6.91461 83.3284 7.10754C83.354 7.21535 83.3668 7.31749 83.3668 7.41395C83.3668 7.50474 83.3668 7.59269 83.3668 7.6778V21.279C83.0343 21.3641 82.5356 21.4464 81.8706 21.5258C81.2121 21.6053 80.5471 21.645 79.8758 21.645C79.198 21.645 78.5906 21.6053 78.0535 21.5258C77.5164 21.4464 77.0625 21.2818 76.6916 21.0322C76.3272 20.7882 76.0458 20.4562 75.8476 20.0363C75.643 19.6108 75.5407 19.0575 75.5407 18.3766V8.61405C75.5407 7.79696 75.2594 7.204 74.6967 6.83517C74.1277 6.47202 73.4435 6.29045 72.6443 6.29045C72.0944 6.29045 71.6181 6.36421 71.2153 6.51174C70.8189 6.65927 70.4832 6.80113 70.2083 6.93731V21.279C69.9014 21.3641 69.4154 21.4464 68.7505 21.5258C68.0919 21.6053 67.4109 21.645 66.7076 21.645C66.0299 21.645 65.4225 21.6053 64.8854 21.5258C64.3483 21.4464 63.8975 21.2818 63.5331 21.0322C63.1622 20.7882 62.8777 20.4562 62.6795 20.0363C62.4813 19.6108 62.3822 19.0575 62.3822 18.3766V6.04361C62.3822 5.30596 62.558 4.71868 62.9097 4.28176C63.2613 3.85051 63.7441 3.44197 64.3579 3.05612C65.4001 2.40358 66.698 1.87304 68.2517 1.46449C69.799 1.05594 71.4167 0.85167 73.1047 0.85167ZM113.154 21.9769C111.344 21.9769 109.666 21.7528 108.119 21.3045C106.565 20.8506 105.213 20.1754 104.062 19.2788C102.911 18.3823 102.006 17.2531 101.348 15.8913C100.689 14.5295 100.36 12.935 100.36 11.1079C100.36 9.30915 100.689 7.76291 101.348 6.46918C102.006 5.17545 102.872 4.11437 103.947 3.28593C105.021 2.45181 106.248 1.83899 107.63 1.44747C109.011 1.05027 110.424 0.85167 111.869 0.85167C113.493 0.85167 114.973 1.07013 116.309 1.50705C117.645 1.94396 118.796 2.5426 119.762 3.30295C120.727 4.06897 121.479 4.98253 122.016 6.04361C122.553 7.1047 122.821 8.26225 122.821 9.51626C122.821 10.4412 122.53 11.1476 121.949 11.6356C121.367 12.1293 120.555 12.4442 119.512 12.5804L108.138 14.0869C108.477 14.9891 109.167 15.6643 110.209 16.1126C111.252 16.5608 112.447 16.785 113.796 16.785C115.056 16.785 116.245 16.6431 117.364 16.3594C118.489 16.07 119.404 15.7352 120.107 15.3551C120.599 15.6274 121.015 16.0104 121.354 16.5041C121.686 16.9921 121.853 17.5085 121.853 18.0532C121.853 19.2788 121.21 20.1924 119.925 20.7938C118.94 21.2535 117.834 21.5655 116.606 21.7301C115.379 21.8947 114.228 21.9769 113.154 21.9769ZM111.869 5.91594C111.133 5.91594 110.497 6.02659 109.96 6.24789C109.423 6.46351 108.985 6.74155 108.646 7.082C108.307 7.42246 108.055 7.80547 107.888 8.23104C107.716 8.65094 107.614 9.07934 107.582 9.51626L115.456 8.36722C115.366 7.82249 115.03 7.27777 114.449 6.73304C113.86 6.18831 113 5.91594 111.869 5.91594ZM145.477 15.3976C145.477 17.4687 144.601 19.0887 142.849 20.2576C141.097 21.4322 138.52 22.0195 135.119 22.0195C133.827 22.0195 132.628 21.9372 131.522 21.7727C130.416 21.6081 129.473 21.3556 128.693 21.0151C127.913 20.6747 127.299 20.2463 126.851 19.7299C126.404 19.2136 126.18 18.6007 126.18 17.8915C126.18 17.2389 126.333 16.6857 126.64 16.2317C126.947 15.7835 127.318 15.409 127.753 15.1082C128.642 15.5452 129.661 15.9338 130.812 16.2743C131.963 16.6148 133.29 16.785 134.792 16.785C135.745 16.785 136.474 16.663 136.979 16.419C137.484 16.175 137.737 15.8487 137.737 15.4402C137.737 15.06 137.555 14.7593 137.19 14.538C136.819 14.3224 136.206 14.1465 135.349 14.0103L133.968 13.7634C131.295 13.2982 129.307 12.569 128.002 11.576C126.698 10.583 126.046 9.16162 126.046 7.31181C126.046 6.30179 126.292 5.38824 126.784 4.57114C127.277 3.75405 127.967 3.07314 128.856 2.52841C129.745 1.98368 130.809 1.56095 132.05 1.26022C133.296 0.959481 134.671 0.809113 136.174 0.809113C137.312 0.809113 138.379 0.885715 139.377 1.03892C140.374 1.18645 141.241 1.41058 141.976 1.71132C142.711 2.01205 143.293 2.40074 143.721 2.87738C144.15 3.35402 144.364 3.91861 144.364 4.57114C144.364 5.19531 144.236 5.73437 143.98 6.18831C143.718 6.63657 143.386 7.01108 142.983 7.31181C142.74 7.17563 142.372 7.03094 141.88 6.87773C141.388 6.7302 140.851 6.59402 140.269 6.46918C139.687 6.35002 139.096 6.24789 138.495 6.16277C137.9 6.08333 137.356 6.04361 136.864 6.04361C135.854 6.04361 135.071 6.14575 134.514 6.35002C133.964 6.5543 133.69 6.87489 133.69 7.31181C133.69 7.60687 133.843 7.85087 134.15 8.04379C134.457 8.23671 135.039 8.41262 135.895 8.5715L137.324 8.86088C140.272 9.46235 142.366 10.2851 143.606 11.3292C144.853 12.3789 145.477 13.7351 145.477 15.3976ZM168.126 15.3976C168.126 17.4687 167.25 19.0887 165.498 20.2576C163.746 21.4322 161.17 22.0195 157.768 22.0195C156.477 22.0195 155.278 21.9372 154.172 21.7727C153.065 21.6081 152.122 21.3556 151.342 21.0151C150.562 20.6747 149.948 20.2463 149.501 19.7299C149.053 19.2136 148.83 18.6007 148.83 17.8915C148.83 17.2389 148.983 16.6857 149.29 16.2317C149.597 15.7835 149.968 15.409 150.402 15.1082C151.291 15.5452 152.311 15.9338 153.462 16.2743C154.613 16.6148 155.939 16.785 157.442 16.785C158.395 16.785 159.124 16.663 159.629 16.419C160.134 16.175 160.386 15.8487 160.386 15.4402C160.386 15.06 160.204 14.7593 159.84 14.538C159.469 14.3224 158.855 14.1465 157.998 14.0103L156.617 13.7634C153.945 13.2982 151.956 12.569 150.652 11.576C149.347 10.583 148.695 9.16162 148.695 7.31181C148.695 6.30179 148.941 5.38824 149.434 4.57114C149.926 3.75405 150.617 3.07314 151.505 2.52841C152.394 1.98368 153.459 1.56095 154.699 1.26022C155.946 0.959481 157.321 0.809113 158.823 0.809113C159.961 0.809113 161.029 0.885715 162.026 1.03892C163.024 1.18645 163.89 1.41058 164.626 1.71132C165.361 2.01205 165.943 2.40074 166.371 2.87738C166.799 3.35402 167.014 3.91861 167.014 4.57114C167.014 5.19531 166.886 5.73437 166.63 6.18831C166.368 6.63657 166.035 7.01108 165.633 7.31181C165.39 7.17563 165.022 7.03094 164.53 6.87773C164.037 6.7302 163.5 6.59402 162.918 6.46918C162.337 6.35002 161.745 6.24789 161.144 6.16277C160.549 6.08333 160.006 6.04361 159.514 6.04361C158.503 6.04361 157.72 6.14575 157.164 6.35002C156.614 6.5543 156.339 6.87489 156.339 7.31181C156.339 7.60687 156.493 7.85087 156.799 8.04379C157.106 8.23671 157.688 8.41262 158.545 8.5715L159.974 8.86088C162.922 9.46235 165.016 10.2851 166.256 11.3292C167.503 12.3789 168.126 13.7351 168.126 15.3976ZM181.933 16.9127C182.457 16.9127 183.033 16.8644 183.659 16.768C184.286 16.6715 184.753 16.541 185.06 16.3764V13.1081L181.751 13.3549C180.888 13.4116 180.181 13.5762 179.631 13.8486C179.081 14.1209 178.806 14.5295 178.806 15.0742C178.806 15.6189 179.043 16.0615 179.516 16.402C179.989 16.7424 180.795 16.9127 181.933 16.9127ZM181.569 0.85167C183.225 0.85167 184.734 1.00204 186.095 1.30277C187.464 1.60351 188.631 2.06029 189.596 2.67311C190.562 3.28593 191.306 4.06046 191.831 4.99671C192.355 5.93864 192.617 7.0508 192.617 8.33318V17.4829C192.617 18.1922 192.393 18.771 191.946 19.2192C191.498 19.6675 190.968 20.0562 190.354 20.3853C188.359 21.4464 185.552 21.9769 181.933 21.9769C180.309 21.9769 178.845 21.8407 177.54 21.5684C176.236 21.296 175.114 20.8875 174.174 20.3427C173.241 19.798 172.521 19.1029 172.016 18.2575C171.505 17.412 171.249 16.4303 171.249 15.3125C171.249 13.4343 171.879 11.9931 173.138 10.9887C174.398 9.97871 176.348 9.35171 178.989 9.10771L185.021 8.53745V8.24806C185.021 7.45934 184.628 6.89475 183.842 6.5543C183.062 6.21384 181.933 6.04361 180.456 6.04361C179.292 6.04361 178.157 6.15143 177.051 6.36705C175.945 6.58834 174.948 6.86071 174.059 7.18414C173.663 6.94015 173.327 6.56565 173.052 6.06064C172.771 5.55563 172.63 5.03076 172.63 4.48603C172.63 3.78242 172.822 3.21783 173.205 2.79227C173.589 2.37237 174.18 2.01205 174.98 1.71132C175.868 1.41058 176.92 1.19213 178.135 1.05594C179.35 0.919761 180.494 0.85167 181.569 0.85167ZM208.31 0.85167C210.061 0.85167 211.65 1.05027 213.076 1.44747C214.502 1.83899 215.707 2.34967 216.692 2.97952C217.306 3.35969 217.788 3.78242 218.14 4.24771C218.492 4.70733 218.668 5.30596 218.668 6.04361V20.3427C218.668 21.784 218.361 23.0295 217.747 24.0792C217.133 25.129 216.299 26 215.244 26.6922C214.182 27.3902 212.939 27.9009 211.513 28.2243C210.087 28.5534 208.559 28.7179 206.928 28.7179C204.134 28.7179 201.941 28.3832 200.349 27.7136C198.751 27.0497 197.952 25.9688 197.952 24.4708C197.952 23.8409 198.099 23.2877 198.393 22.811C198.68 22.3344 199.01 21.9741 199.381 21.7301C200.269 22.167 201.273 22.5358 202.392 22.8366C203.517 23.1316 204.678 23.2792 205.874 23.2792C207.53 23.2792 208.85 23.0352 209.834 22.5472C210.813 22.0592 211.302 21.2705 211.302 20.181V19.5256C210.042 20.0136 208.508 20.2576 206.698 20.2576C205.317 20.2576 204.007 20.0732 202.766 19.7044C201.519 19.3412 200.429 18.771 199.496 17.9936C198.562 17.2162 197.811 16.2147 197.242 14.9891C196.673 13.7634 196.388 12.3052 196.388 10.6142C196.388 8.95735 196.689 7.51608 197.29 6.29045C197.884 5.06481 198.712 4.04911 199.774 3.24337C200.829 2.43762 202.085 1.83899 203.543 1.44747C205.001 1.05027 206.59 0.85167 208.31 0.85167ZM211.168 14.2911V6.77559C210.95 6.66778 210.634 6.55997 210.218 6.45216C209.809 6.34435 209.297 6.29045 208.684 6.29045C207.175 6.29045 206.046 6.66495 205.298 7.41395C204.544 8.16295 204.166 9.22971 204.166 10.6142C204.166 12.1973 204.544 13.335 205.298 14.0273C206.046 14.7252 207.005 15.0742 208.175 15.0742C209.435 15.0742 210.432 14.8132 211.168 14.2911ZM235.332 21.9769C233.523 21.9769 231.845 21.7528 230.297 21.3045C228.744 20.8506 227.391 20.1754 226.24 19.2788C225.09 18.3823 224.185 17.2531 223.526 15.8913C222.868 14.5295 222.538 12.935 222.538 11.1079C222.538 9.30915 222.868 7.76291 223.526 6.46918C224.185 5.17545 225.051 4.11437 226.125 3.28593C227.2 2.45181 228.427 1.83899 229.808 1.44747C231.189 1.05027 232.602 0.85167 234.047 0.85167C235.671 0.85167 237.152 1.07013 238.488 1.50705C239.824 1.94396 240.975 2.5426 241.941 3.30295C242.906 4.06897 243.657 4.98253 244.194 6.04361C244.731 7.1047 245 8.26225 245 9.51626C245 10.4412 244.709 11.1476 244.127 11.6356C243.545 12.1293 242.733 12.4442 241.691 12.5804L230.317 14.0869C230.655 14.9891 231.346 15.6643 232.388 16.1126C233.43 16.5608 234.626 16.785 235.975 16.785C237.235 16.785 238.424 16.6431 239.543 16.3594C240.668 16.07 241.582 15.7352 242.286 15.3551C242.778 15.6274 243.194 16.0104 243.533 16.5041C243.865 16.9921 244.031 17.5085 244.031 18.0532C244.031 19.2788 243.389 20.1924 242.104 20.7938C241.119 21.2535 240.013 21.5655 238.785 21.7301C237.558 21.8947 236.407 21.9769 235.332 21.9769ZM234.047 5.91594C233.312 5.91594 232.676 6.02659 232.139 6.24789C231.602 6.46351 231.164 6.74155 230.825 7.082C230.486 7.42246 230.233 7.80547 230.067 8.23104C229.895 8.65094 229.792 9.07934 229.76 9.51626L237.634 8.36722C237.545 7.82249 237.209 7.27777 236.627 6.73304C236.039 6.18831 235.179 5.91594 234.047 5.91594Z" fill="#8900CA"/>
</svg>
